<?xml version="1.0" encoding="utf-8"?>
<!DOCTYPE svg PUBLIC "-//W3C//DTD SVG 1.1//EN" "http://www.w3.org/Graphics/SVG/1.1/DTD/svg11.dtd">
<svg version="1.1" id="Layer_1" xmlns="http://www.w3.org/2000/svg" xmlns:xlink="http://www.w3.org/1999/xlink" x="0px" y="0px"
	 width="133.153px" height="28.1px" viewBox="0 0 133.153 28.1" enable-background="new 0 0 133.153 28.1" xml:space="preserve">
<g>
	<g>
		<path fill="#FFFFFF" d="M0.016,3.167h7.421v18.836c0,0-0.057,0.774,0.803,0.774h4.038v5.185H0.892c0,0-0.892-0.143-0.892-1.042
			L0.016,3.167z"/>
		<g>
			<g>
				<path fill="#FFFFFF" d="M27.935,3.14H15.783c-2.409,0-2.409,2.769-2.409,2.769V28h7.011v-7.314h2.935v7.313h7.064V5.908
					C30.384,3.176,27.935,3.14,27.935,3.14z M23.312,15.181h-2.928v-5.146c0,0,0.099-1.162,1.503-1.162
					c1.406,0,1.425,1.162,1.425,1.162V15.181z"/>
			</g>
		</g>
		<g>
			<g>
				<path fill="#FFFFFF" d="M72.256,3.14H60.104c-2.412,0-2.412,2.769-2.412,2.769V28h7.014v-7.314h2.93v7.313h7.067V5.908
					C74.703,3.176,72.256,3.14,72.256,3.14z M67.634,15.181h-2.928v-5.146c0,0,0.096-1.162,1.502-1.162
					c1.403,0,1.426,1.162,1.426,1.162V15.181z"/>
			</g>
		</g>
		<path fill="#FFFFFF" d="M38.61,3.317h6.305l1.17,1.917c0,0,0.443-1.873,4.998-2.094c5.45-0.268,5.382,2.769,5.382,2.769v22.09
			h-7.483V9.349c0,0-0.091-0.905-1.432-0.905c-1.393,0-1.465,0.905-1.465,0.905v18.649H38.61V3.317z"/>
	</g>
	<path fill="#FFFFFF" d="M115.298,3.317h6.305l1.171,1.917c0,0,0.443-1.873,5-2.094c5.447-0.268,5.38,2.769,5.38,2.769v22.09h-7.483
		V9.349c0,0-0.091-0.905-1.433-0.905c-1.393,0-1.464,0.905-1.464,0.905v18.649h-7.476V3.317z"/>
	<path fill="#FFFFFF" d="M88.29,3.237L80.871,3.14c0,0-4.997-0.144-4.997,5.733v15.998c0,0-0.148,3.128,4.298,3.128l8.118-0.176
		v-4.812h-4.166c0,0-0.824,0.064-0.824-0.975V9.828c0,0-0.172-1.173,1.398-1.173h3.592V3.237z"/>
	<rect x="89.321" y="3.14" fill="#FFFFFF" width="6.596" height="24.859"/>
	<g>
		<g>
			<path fill="#FFFFFF" d="M108.931,3.14h-6.699c-5.205,0.398-5.141,5.305-5.141,5.305v15.438c0.211,3.992,3.96,4.116,3.96,4.116
				h9.058c0,0,3.75-0.124,3.964-4.116V8.444C114.072,8.444,114.133,3.538,108.931,3.14z M106.995,9.497v12.86
				c0,0,0.026,0.915-1.415,0.915c-1.439,0-1.415-0.915-1.415-0.915V9.497V9.349c0.009-0.031,0.026-0.054,0.037-0.083
				c-0.016,0.075-0.037,0.143-0.037,0.231c0-0.088,0.021-0.156,0.037-0.231c0.183-0.909,1.378-0.839,1.378-0.839
				S106.995,8.33,106.995,9.497c0-0.088-0.021-0.155-0.036-0.229c0.011,0.029,0.027,0.05,0.036,0.081V9.497z"/>
		</g>
	</g>
	<polygon fill="#FFFFFF" points="104.087,0.766 104.087,1.855 114.025,1.855 114.025,0 	"/>
</g>
</svg>
